# AST/ASF file generated using VICON BodyLanguage
# -----------------------------------------------
:version 1.10
:name VICON
:units
  mass 1.0
  length 0.45
  angle deg
:documentation
   .ast/.asf automatically generated from VICON data using
   VICON BodyBuilder and BodyLanguage model FoxedUp or BRILLIANT.MOD
:root
   order TX TY TZ RX RY RZ
   axis XYZ
   position 0 0 0  
   orientation 0 0 0 
:bonedata
  begin
     id 1 
     name lhipjoint
     direction 0.690799 -0.707083 0.151096 
     length 2.54797 
     axis 0 0 0  XYZ
  end
  begin
     id 2 
     name lfemur
     direction 0.34202 -0.939693 0  
     length 7.21646  
     axis 0 0 20  XYZ
    dof rx ry rz
    limits (-160.0 20.0)
           (-70.0 70.0)
           (-60.0 70.0)
  end
  begin
     id 3 
     name ltibia
     direction 0.34202 -0.939693 0   
     length 8.16759   
     axis 0 0 20   XYZ
    dof rx
    limits (-10.0 170.0)
  end
  begin
     id 4 
     name lfoot
     direction 0.0487203 -0.133858 0.989802   
     length 1.93375   
     axis -90 7.62852e-016 20   XYZ
    dof rx rz
    limits (-45.0 90.0)
           (-70.0 20.0)
  end
  begin
     id 5 
     name ltoes
     direction 1.53453e-011 -4.21783e-011 1   
     length 0.979747   
     axis -90 7.62852e-016 20   XYZ
    dof rx
    limits (-90.0 20.0)
  end
  begin
     id 6 
     name rhipjoint
     direction -0.694693 -0.703425 0.150315   
     length 2.56122  
     axis 0 0 0  XYZ 
  end
  begin
     id 7 
     name rfemur
     direction -0.34202 -0.939693 0   
     length 7.36786   
     axis 0 0 -20   XYZ
    dof rx ry rz
    limits (-160.0 20.0)
           (-70.0 70.0)
           (-70.0 60.0)
  end
  begin
     id 8 
     name rtibia
     direction -0.34202 -0.939693 0   
     length 8.07288   
     axis 0 0 -20   XYZ
    dof rx
    limits (-10.0 170.0)
 end
 begin
     id 9 
     name rfoot
     direction -0.0428397 -0.117701 0.992125   
     length 1.88295  
     axis -90 -7.62852e-016 -20   XYZ
    dof rx rz
    limits (-45.0 90.0)
           (-20.0 70.0)
  end
  begin
     id 10 
     name rtoes
     direction -1.53456e-011 -4.2187e-011 1   
     length 0.955578   
     axis -90 -7.62852e-016 -20   XYZ
    dof rx
    limits (-90.0 20.0)
  end
  begin
     id 11 
     name lowerback
     direction 0.0288145 0.999398 -0.0193241   
     length 1.92149   
     axis 0 0 0   XYZ
    dof rx ry rz
    limits (-20.0 45.0)
           (-30.0 30.0)
           (-30.0 30.0)
  end
  begin
     id 12 
     name upperback
     direction 0.0233784 0.998099 0.0570278   
     length 1.90435   
     axis 0 0 0   XYZ
    dof rx ry rz
    limits (-20.0 45.0)
           (-30.0 30.0)
           (-30.0 30.0)
  end
  begin
     id 13 
     name thorax
     direction 0.0096694 0.997833 0.0650817   
     length 1.9111   
     axis 0 0 0   XYZ
    dof rx ry rz
    limits (-20.0 45.0)
           (-30.0 30.0)
           (-30.0 30.0)
  end
  begin
     id 14 
     name lowerneck
     direction 0.00516803 0.999916 0.0118722   
     length 1.74664   
     axis 0 0 0   XYZ
    dof rx ry rz
    limits (-20.0 45.0)
           (-30.0 30.0)
           (-30.0 30.0)
  end
  begin
     id 15 
     name upperneck
     direction -0.0510851 0.996117 -0.071696   
     length 1.68498   
     axis 0 0 0   XYZ
    dof rx ry rz
    limits (-20.0 45.0)
           (-30.0 30.0)
           (-30.0 30.0)
  end
  begin
     id 16
     name head
     direction -0.019188 0.999436 -0.0275702  
     length 1.83483  
     axis 0 0 0   XYZ
    dof rx ry rz
    limits (-20.0 45.0)
           (-30.0 30.0)
           (-30.0 30.0)
  end
  begin
     id 17 
     name lclavicle
     direction 0.967006 0.248456 -0.0562957  
     length 3.39395  
     axis 0 0 0   XYZ
    dof ry rz
    limits (-20.0 10.0)
           (0.0 20.0)
  end
  begin
     id 18 
     name lhumerus
     direction 1 -4.48962e-011 -5.62711e-019   
     length 5.24318   
     axis 180 -30 -90   XYZ
    dof rx ry rz
    limits (-60.0 90.0)
           (-90.0 90.0)
           (-90.0 90.0)
  end
  begin
     id 19
     name lradius
     direction 1 -4.48966e-011 7.90625e-027   
     length 2.98999   
     axis 180 -30 -90   XYZ
    dof rx
    limits (-10.0 170.0)
  end
  begin
     id 20
     name lwrist
     direction 1 -4.48959e-011 1.61068e-026   
     length 1.49499   
     axis -9.31229e-015 90 90   XYZ
    dof ry
    limits (-180.0 0.0)
 end
  begin
     id 21 
     name lhand
     direction 1 -4.49017e-011 3.22136e-026   
     length 0.726745   
     axis -2.0555e-014 90 90   XYZ
    dof rx rz
    limits (-90.0 90.0)
           (-45.0 45.0)
  end
  begin
     id 22 
     name lfingers
     direction 1 -4.4898e-011 6.44272e-026   
     length 0.58592   
     axis -4.11101e-014 90 90   XYZ
    dof rx
    limits (0.0 90.0)
  end
  begin
     id 23
     name lthumb
     direction 0.707107 -6.34922e-011 0.707107   
     length 0.841268   
     axis -90 45 2.85299e-015   XYZ
    dof rx rz
    limits (-45.0 45.0)
           (-45.0 45.0)
  end
  begin
     id 24 
     name rclavicle
     direction -0.972232 0.230238 0.0419005   
     length 3.40416  
     axis 0 0 0   XYZ 
    dof ry rz
    limits (-10.0 20.0)
           (-20.0 0.0)
  end
  begin
     id 25 
     name rhumerus
     direction -1 -4.48976e-011 2.48487e-027  
     length 5.37045   
     axis 180 30 90   XYZ
    dof rx ry rz
    limits (-90.0 60.0)
           (-90.0 90.0)
           (-90.0 90.0)
  end
  begin
     id 26 
     name rradius
     direction -1 -4.48942e-011 7.87951e-027   
     length 2.92792   
     axis 180 30 90   XYZ
    dof rx
    limits (-10.0 170.0)
  end
  begin
     id 27 
     name rwrist
     direction -1 -4.48969e-011 1.61068e-026   
     length 1.46396   
     axis -9.31229e-015 -90 -90   XYZ
    dof ry
    limits (-180.0 0.0)
  end
  begin
     id 28
     name rhand
     direction -1 -4.49043e-011 3.22136e-026   
     length 0.784497   
     axis -2.0555e-014 -90 -90   XYZ
    dof rx rz
    limits (-90.0 90.0)
           (-45.0 45.0)
  end
  begin
     id 29
     name rfingers
     direction -1 -4.48823e-011 6.44272e-026   
     length 0.632482   
     axis -4.11101e-014 -90 -90   XYZ
    dof rx
    limits (0.0 90.0)
  end
  begin
     id 30
     name rthumb
     direction -0.707107 -6.34923e-011 0.707107   
     length 0.908121   
     axis -90 -45 -2.85299e-015   XYZ
    dof rx rz
    limits (-45.0 45.0)
           (-45.0 45.0)
  end
:hierarchy
  begin
    root lhipjoint rhipjoint lowerback
    lhipjoint lfemur
    lfemur ltibia
    ltibia lfoot
    lfoot ltoes
    rhipjoint rfemur
    rfemur rtibia
    rtibia rfoot
    rfoot rtoes
    lowerback upperback
    upperback thorax
    thorax lowerneck lclavicle rclavicle
    lowerneck upperneck
    upperneck head
    lclavicle lhumerus
    lhumerus lradius
    lradius lwrist
    lwrist lhand lthumb
    lhand lfingers
    rclavicle rhumerus
    rhumerus rradius
    rradius rwrist
    rwrist rhand rthumb
    rhand rfingers
  end

#!OML:ASF E:\Style6\Style6.ASF
:FULLY-SPECIFIED
:DEGREES
1897
root 0.557706 18.2765 0.337222 31.4163 0.315652 -1.74644
lowerback 11.8229 -1.2799 4.85073
upperback -6.0485 -0.518058 2.97291
thorax -13.3936 -0.503318 0.678696
lowerneck -7.34255 1.10113 2.3463
upperneck -13.9813 0.639981 -7.27383
head -3.24691 0.396262 -2.83527
rclavicle 4.96962e-015 -3.97569e-015
rhumerus -6.44677 14.2363 -92.9506
rradius 27.3876
rwrist 42.6993
rhand -6.88842 3.76063
rfingers 7.12502
rthumb 18.9781 -25.3335
lclavicle 4.96962e-015 -3.97569e-015
lhumerus -10.1189 -41.5965 92.4334
lradius 32.2391
lwrist -9.89029
lhand -5.51502 22.5271
lfingers 7.12502
lthumb 20.2985 51.4864
rfemur -32.3112 14.8826 10.2439
rtibia 9.93923e-016
rfoot -7.55786 -31.0737
rtoes 23.5002
lfemur -42.8476 -35.3722 6.20389
ltibia 14.2767
lfoot -21.472 43.7784
ltoes 22.9748
1898
root 0.55686 18.2744 0.32707 31.4961 0.225996 -1.65193
lowerback 11.854 -1.27614 4.73734
upperback -6.08627 -0.533868 2.93237
thorax -13.455 -0.503952 0.7033
lowerneck -7.32894 1.10986 2.43249
upperneck -13.9388 0.644942 -7.33032
head -3.23453 0.395568 -2.86997
rclavicle 1.19271e-015 -2.34566e-014
rhumerus -6.4457 14.3319 -92.958
rradius 27.4624
rwrist 42.6276
rhand -6.81139 3.72653
rfingers 7.12502
rthumb 19.0522 -25.3603
lclavicle 1.19271e-015 -2.34566e-014
lhumerus -10.0961 -41.4835 92.3624
lradius 32.1256
lwrist -10.0196
lhand -5.52179 22.4264
lfingers 7.12502
lthumb 20.292 51.3863
rfemur -32.4546 14.8739 10.0736
rtibia 8.74653e-014
rfoot -7.77793 -31.0407
rtoes 24.1733
lfemur -42.9018 -35.2643 6.10635
ltibia 14.1917
lfoot -21.4696 43.7221
ltoes 23.1912
1899
root 0.554783 18.2715 0.315925 31.5518 0.112472 -1.53579
lowerback 11.9546 -1.26793 4.58768
upperback -6.13601 -0.54716 2.87145
thorax -13.5729 -0.501737 0.727419
lowerneck -7.31993 1.12814 2.52044
upperneck -13.8845 0.666649 -7.35557
head -3.21609 0.402145 -2.89378
rclavicle -3.18055e-015 -7.95139e-016
rhumerus -6.4484 14.408 -92.9892
rradius 27.4761
rwrist 42.5408
rhand -6.76642 3.61728
rfingers 7.12502
rthumb 19.0955 -25.4653
lclavicle -3.18055e-015 -7.95139e-016
lhumerus -10.1269 -41.4503 92.2893
lradius 32.0407
lwrist -10.0744
lhand -5.75227 22.4556
lfingers 7.12502
lthumb 20.0705 51.439
rfemur -32.5808 14.878 9.87824
rtibia -3.06128e-014
rfoot -7.76735 -31.0586
rtoes 24.2701
lfemur -42.9625 -35.2379 6.03678
ltibia 14.0967
lfoot -21.6435 43.7395
ltoes 23.6068
1900
root 0.55454 18.2701 0.306802 31.5497 0.0508432 -1.45281
lowerback 12.0623 -1.28729 4.48816
upperback -6.14554 -0.585311 2.85472
thorax -13.6497 -0.512198 0.777098
lowerneck -7.38665 1.14821 2.52854
upperneck -13.7729 0.701379 -7.32919
head -3.16285 0.415571 -2.88241
rclavicle 1.43125e-014 -2.90226e-014
rhumerus -6.37151 14.5035 -92.9775
rradius 27.4309
rwrist 42.5272
rhand -6.68355 3.64216
rfingers 7.12502
rthumb 19.1752 -25.4326
lclavicle 1.43125e-014 -2.90226e-014
lhumerus -10.0897 -41.2912 92.223
lradius 31.9312
lwrist -10.0524
lhand -5.89116 22.5449
lfingers 7.12502
lthumb 19.937 51.5422
rfemur -32.6185 14.8675 9.75747
rtibia 3.70733e-014
rfoot -7.71906 -31.0564
rtoes 24.3132
lfemur -42.9107 -35.1393 5.86961
ltibia 14.0282
lfoot -21.4971 43.6802
ltoes 23.571
1901
root 0.555446 18.2709 0.300316 31.5551 0.0710082 -1.46963
lowerback 12.0845 -1.31693 4.5383
upperback -6.13674 -0.611851 2.8829
thorax -13.6549 -0.527419 0.786993
lowerneck -7.37401 1.14827 2.42753
upperneck -13.7513 0.713382 -7.26131
head -3.15636 0.424583 -2.83973
rclavicle -5.96354e-015 3.57812e-015
rhumerus -6.29192 14.7555 -92.9179
rradius 27.4132
rwrist 42.3373
rhand -6.6455 3.6242
rfingers 7.12502
rthumb 19.2117 -25.4469
lclavicle -5.96354e-015 3.57812e-015
lhumerus -10.0032 -41.0907 92.1799
lradius 31.8347
lwrist -10.0455
lhand -5.72663 22.6921
lfingers 7.12502
lthumb 20.0951 51.6729
rfemur -32.6409 14.8481 9.7768
rtibia 4.32357e-014
rfoot -7.72398 -31.0266
rtoes 24.3206
lfemur -42.8912 -35.0583 5.85007
ltibia 13.9932
lfoot -21.3002 43.6109
ltoes 23.4505
1902
root 0.556561 18.2701 0.294261 31.6046 0.103491 -1.48264
lowerback 12.0619 -1.34912 4.61175
upperback -6.15078 -0.642671 2.88799
thorax -13.66 -0.548422 0.758824
lowerneck -7.38221 1.15065 2.40134
upperneck -13.6617 0.726483 -7.21873
head -3.12257 0.429892 -2.81779
rclavicle 2.18663e-015 -1.47101e-014
rhumerus -6.23638 14.956 -92.9001
rradius 27.3701
rwrist 42.1679
rhand -6.66071 3.52282
rfingers 7.12502
rthumb 19.1971 -25.5497
lclavicle 2.18663e-015 -1.47101e-014
lhumerus -9.9553 -40.936 92.1223
lradius 31.7172
lwrist -10.031
lhand -5.70649 22.6463
lfingers 7.12502
lthumb 20.1145 51.6251
rfemur -32.7138 14.811 9.79153
rtibia -1.65985e-014
rfoot -7.42111 -31.0581
rtoes 23.5889
lfemur -42.8965 -34.8265 5.73966
ltibia 14.0156
lfoot -20.5207 43.5488
ltoes 22.3958
1903
root 0.556233 18.2694 0.287744 31.6176 0.134704 -1.49963
lowerback 12.0859 -1.38038 4.67087
upperback -6.16746 -0.672779 2.881
thorax -13.6969 -0.568719 0.726594
lowerneck -7.38088 1.17082 2.41794
upperneck -13.5619 0.762455 -7.17805
head -3.08572 0.444722 -2.80427
rclavicle 6.16232e-015 -2.38542e-015
rhumerus -6.22972 14.9607 -92.9091
rradius 27.3117
rwrist 42.269
rhand -6.67502 3.54046
rfingers 7.12502
rthumb 19.1834 -25.5334
lclavicle 6.16232e-015 -2.38542e-015
lhumerus -9.97138 -40.755 92.062
lradius 31.6083
lwrist -10.0936
lhand -5.80876 22.5612
lfingers 7.12502
lthumb 20.0162 51.5503
rfemur -32.7504 14.7864 9.82234
rtibia 4.57205e-015
rfoot -7.37059 -31.0981
rtoes 23.6915
lfemur -42.9147 -34.6292 5.65275
ltibia 14.0871
lfoot -20.1502 43.4138
ltoes 21.9079
1904
root 0.556596 18.2688 0.282143 31.6047 0.162453 -1.53634
lowerback 12.0947 -1.40649 4.73433
upperback -6.13977 -0.696468 2.88906
thorax -13.6721 -0.584599 0.704837
lowerneck -7.32743 1.17887 2.421
upperneck -13.6431 0.772792 -7.13888
head -3.1228 0.45064 -2.79387
rclavicle 8.94531e-015 -1.27222e-014
rhumerus -6.17977 14.8316 -92.9031
rradius 27.2584
rwrist 42.5294
rhand -6.72654 3.60994
rfingers 7.12502
rthumb 19.1338 -25.4689
lclavicle 8.94531e-015 -1.27222e-014
lhumerus -9.88657 -40.5905 91.9458
lradius 31.5108
lwrist -10.1169
lhand -5.93746 22.5071
lfingers 7.12502
lthumb 19.8925 51.5091
rfemur -32.7554 14.7777 9.87194
rtibia 1.88845e-015
rfoot -7.35143 -31.0949
rtoes 23.8091
lfemur -42.9489 -34.5682 5.66268
ltibia 14.1799
lfoot -20.0869 43.3474
ltoes 21.7885
1905
root 0.557156 18.268 0.276145 31.5996 0.14468 -1.56926
lowerback 12.0846 -1.40192 4.77216
upperback -6.10957 -0.685738 2.88841
thorax -13.631 -0.582403 0.678798
lowerneck -7.27826 1.17373 2.46119
upperneck -13.6944 0.760205 -7.15454
head -3.15034 0.444306 -2.8086
rclavicle 1.19271e-015 -1.11319e-014
rhumerus -6.11884 14.7618 -92.8544
rradius 27.1943
rwrist 42.6936
rhand -6.84476 3.70094
rfingers 7.12502
rthumb 19.0201 -25.3891
lclavicle 1.19271e-015 -1.11319e-014
lhumerus -9.81061 -40.4452 91.8599
lradius 31.4677
lwrist -10.1816
lhand -5.91107 22.4983
lfingers 7.12502
lthumb 19.9178 51.4976
rfemur -32.7853 14.8 9.88538
rtibia 3.10104e-014
rfoot -7.35507 -31.1036
rtoes 23.8737
lfemur -42.9634 -34.4828 5.63809
ltibia 14.2754
lfoot -20.0974 43.2476
ltoes 21.7382
1906
root 0.555272 18.269 0.270465 31.5916 0.13684 -1.63169
lowerback 12.0857 -1.40582 4.80287
upperback -6.08675 -0.684439 2.90548
thorax -13.6054 -0.583106 0.679346
lowerneck -7.24361 1.18434 2.49392
upperneck -13.6826 0.772774 -7.16831
head -3.15174 0.44979 -2.81956
rclavicle -8.34896e-015 2.14687e-014
rhumerus -6.10135 14.8595 -92.8406
rradius 27.1959
rwrist 42.7023
rhand -6.76894 3.65342
rfingers 7.12502
rthumb 19.093 -25.4294
lclavicle -8.34896e-015 2.14687e-014
lhumerus -9.79056 -40.3161 91.7858
lradius 31.4436
lwrist -10.2809
lhand -5.91848 22.4388
lfingers 7.12502
lthumb 19.9107 51.4388
rfemur -32.8056 14.8395 9.94307
rtibia -4.67144e-014
rfoot -7.18631 -31.1114
rtoes 23.4948
lfemur -42.9278 -34.3112 5.57754
ltibia 14.3618
lfoot -19.9515 43.1305
ltoes 21.3945
